<?xml version="1.0" encoding="utf-8"?>
<!-- Generator: Adobe Illustrator 24.0.3, SVG Export Plug-In . SVG Version: 6.00 Build 0)  -->
<svg version="1.1" id="Layer_1" xmlns="http://www.w3.org/2000/svg" xmlns:xlink="http://www.w3.org/1999/xlink" x="0px" y="0px"
	 viewBox="0 0 99 87.5" style="enable-background:new 0 0 99 87.5;" xml:space="preserve">
<style type="text/css">
	.st0{fill-rule:evenodd;clip-rule:evenodd;fill:#35B0CB;}
	.st1{fill-rule:evenodd;clip-rule:evenodd;fill:#D2B859;}
	.st2{fill:none;stroke:#344154;stroke-width:3;}
</style>
<title>Icon/Data-Research</title>
<desc>Created with Sketch.</desc>
<g id="Icon_x2F_Data-Research">
	<g id="Group" transform="translate(9.000000, 14.000000)">
		<path id="Fill-1" class="st0" d="M27.5-5c0-1.4-1.1-2.5-2.5-2.5S22.5-6.4,22.5-5s1.1,2.5,2.5,2.5S27.5-3.6,27.5-5"/>
		<polygon id="Fill-5" class="st0" points="-7.5,62.5 2.5,62.5 2.5,29.5 -7.5,29.5 		"/>
		<polygon id="Fill-7" class="st1" points="76.5,62.5 86.5,62.5 86.5,12.5 76.5,12.5 		"/>
		<polygon id="Fill-8" class="st1" points="20.5,62.5 30.5,62.5 30.5,11.5 20.5,11.5 		"/>
		<path id="Stroke-9" class="st2" d="M32.5-5c0-4.1-3.4-7.5-7.5-7.5S17.5-9.1,17.5-5s3.4,7.5,7.5,7.5S32.5-0.9,32.5-5z"/>
		<path id="Fill-10" class="st0" d="M83.5-4c0-1.4-1.1-2.5-2.5-2.5c-1.4,0-2.5,1.1-2.5,2.5s1.1,2.5,2.5,2.5
			C82.4-1.5,83.5-2.6,83.5-4"/>
		<path id="Stroke-11" class="st2" d="M88.5-4c0-4.1-3.4-7.5-7.5-7.5S73.5-8.1,73.5-4s3.4,7.5,7.5,7.5S88.5,0.1,88.5-4z"/>
		<polygon id="Fill-12" class="st0" points="48.5,62.5 58.5,62.5 58.5,27.5 48.5,27.5 		"/>
		<path id="Stroke-13" class="st2" d="M57.5,11c0-2.5-2-4.5-4.5-4.5s-4.5,2-4.5,4.5s2,4.5,4.5,4.5S57.5,13.5,57.5,11z"/>
		<path id="Stroke-14" class="st2" d="M1.5,13c0-2.5-2-4.5-4.5-4.5c-2.5,0-4.5,2-4.5,4.5s2,4.5,4.5,4.5C-0.5,17.5,1.5,15.5,1.5,13z"
			/>
		<line id="Stroke-15" class="st2" x1="0.5" y1="9.5" x2="18.5" y2="-1.5"/>
		<line id="Stroke-16" class="st2" x1="31.5" y1="-2.5" x2="48.5" y2="8.5"/>
		<line id="Stroke-17" class="st2" x1="57.5" y1="8.5" x2="74.5" y2="-1.5"/>
		<line id="Stroke-3" class="st2" x1="-7.5" y1="72" x2="86.5" y2="72"/>
	</g>
</g>
</svg>
