<?xml version="1.0" encoding="UTF-8"?>
<svg viewBox="0 0 114 99" version="1.1" xmlns="http://www.w3.org/2000/svg" xmlns:xlink="http://www.w3.org/1999/xlink">
    <!-- Generator: Sketch 61.2 (89653) - https://sketch.com -->
    <title>Icon/Geography</title>
    <desc>Created with Sketch.</desc>
    <g id="Icon/Geography" stroke="none" stroke-width="1" fill="none" fill-rule="evenodd">
        <g id="Group-2">
            <path d="M54.5099174,17.9973276 L55.9,17.9884197 C58.2818182,17.9884197 60.6396694,17.987529 63,17.9821842 C61.9504132,16.2202031 60.7495868,14.5517549 59.4024793,13 C58.4842975,14.2773918 56.7793388,16.2086228 54,18 C54.1719008,18 54.3355372,17.9973276 54.5099174,17.9973276" id="Fill-1" fill="#35B0CB"></path>
            <path d="M41.9516408,61.3848885 C41.8177893,61.1149186 41.6511226,60.7405264 41.5250432,60.2693525 C41.4982729,60.2489774 41.4663212,60.2260554 41.4291883,60.1997376 C41.2107081,60.0588099 40.9956822,59.9170333 40.7815199,59.7744077 L40.0803109,59.3100255 C39.455095,58.896581 38.8341969,58.4839855 38.224525,58.0459211 C37.7823834,57.7326542 37.3756477,57.380335 37,57 L37,68 C38.4663212,67.1323609 40.6822107,65.6008335 43,63.225438 C42.6010363,62.689743 42.2409326,62.0835842 41.9516408,61.3848885" id="Fill-3" fill="#35B0CB"></path>
            <path d="M45.9232595,66.1190096 L45.9185127,66.1166134 C45.4398734,65.8067093 44.8852848,65.4432907 44.3243671,65 C43.2737342,66.0966454 42.1629747,67.0998403 41,68 C42.7136076,67.7020767 44.3797468,67.2452077 46,66.6685304 C45.9723101,66.485623 45.9422468,66.3059105 45.9232595,66.1190096" id="Fill-5" fill="#35B0CB"></path>
            <path d="M58,11.0045132 C57.1755998,12.0857511 55.223073,14.1979368 51.5870342,16 C48.5584482,9.63829787 44.3930577,5.51450677 41,3 C47.3435426,4.03932946 53.1837672,6.78014184 58,11.0045132" id="Fill-7" fill="#35B0CB"></path>
            <path d="M49,17.8254892 C45.5654008,19.1454257 41.5316456,19.8815442 37,20 L37,4 C39.7848101,5.67530407 45.3206751,9.7958752 49,17.8254892" id="Fill-9" fill="#35B0CB"></path>
            <path d="M7.6173785,32 L5,31.6074889 C6.66215022,22.0303827 11.930486,17.2011825 12.1540501,17 L13.997349,18.7704056 L13.0756996,17.8852028 L14,18.7679422 C13.9513991,18.8122844 9.13019146,23.2801774 7.6173785,32" id="Fill-14" fill="#D2B859"></path>
            <path d="M11.0541675,55 C5.17551963,47.9504306 5.00419903,40.3560389 5,40.0364319 L7.51942053,40 C7.52026034,40.0703798 7.70501785,47.0727534 13,53.422665 L11.0541675,55 Z" id="Fill-16" fill="#D2B859"></path>
            <path d="M20.1364657,63 C17.977229,62.1133174 16.0793778,59.7716535 16,59.6723725 L17.8256895,58 C18.2618666,58.5409106 19.6834509,60.0626498 21,60.6035604 L20.1364657,63 Z" id="Fill-18" fill="#D2B859"></path>
            <path d="M17.8935702,13 L16,11.4896097 C16.0668134,11.3933097 17.6491118,9.12350059 20.0622544,8 L21,10.3255618 C19.1811036,11.1719885 17.9061468,12.9822605 17.8935702,13" id="Fill-20" fill="#D2B859"></path>
            <path d="M13.6265434,60.6450391 C14.4410815,59.5538717 16.3416704,57.3971111 19.9137593,55.555766 C22.8749446,62.0345726 26.947635,66.2202226 30.2651808,68.7776462 C24.0543279,67.7291025 18.3440765,64.9415108 13.6265434,60.6450391 L13.6265434,60.6450391 Z M11.6665611,58.7013971 C6.22782245,52.8619465 3.07997214,45.3175468 2.76603559,37.3469098 L16.0107643,37.3469098 C16.1465206,43.0584892 17.096815,48.3182572 18.844678,52.9983424 C14.9925917,54.9334596 12.7780662,57.2607151 11.6665611,58.7013971 L11.6665611,58.7013971 Z M11.6750459,13.2986029 C12.7780662,14.7392849 14.9925917,17.0580156 18.844678,18.9931328 C17.096815,23.6817428 16.1465206,28.932986 16.019249,34.6104665 L2.76603559,34.6104665 C3.09694168,26.656879 6.244792,19.121004 11.6750459,13.2986029 L11.6750459,13.2986029 Z M30.1718483,3.23087852 C28.5258026,4.49254085 26.9815741,5.95027232 25.5646172,7.56144921 C23.307668,10.1273976 21.4070791,13.1025337 19.9052745,16.410135 C16.3586399,14.56879 14.4495663,12.4376036 13.6435129,11.3464362 C18.3271069,7.07553872 24.0034192,4.2964717 30.1718483,3.23087852 L30.1718483,3.23087852 Z M34.4481732,19.7347857 C29.9173051,19.6154393 25.870069,18.8737864 22.4167669,17.5354014 C26.1076426,9.47951693 31.6566833,5.31944116 34.4481732,3.63154156 L34.4481732,19.7347857 Z M57.9934148,11.3549609 C57.1873615,12.4546531 55.2782878,14.6028889 51.7231685,16.4357092 C48.7619832,9.96542742 44.6892927,5.77125266 41.371747,3.21382903 C47.5741151,4.27089747 53.2843665,7.05848923 57.9934148,11.3549609 L57.9934148,11.3549609 Z M46.8274552,67.3395217 C45.089774,67.9550083 43.302881,68.4426237 41.4650795,68.7605967 C42.7114924,67.7998579 43.9036029,66.7291499 45.0303805,65.5587023 C44.3549927,65.0276107 43.6711201,64.3839924 43.0754891,63.5656169 C40.7981764,65.9508406 38.620984,67.4887047 37.1802697,68.3599337 L37.1802697,57.314421 C36.185006,56.2846318 35.4324068,55.0263794 34.9818654,53.6061568 C34.9513202,53.5456311 34.9165326,53.4851054 34.8825936,53.4228747 L34.456658,52.6121714 L34.456658,68.3769832 C31.6651681,66.6890836 26.0906731,62.5375326 22.3913126,54.4475491 C25.8072817,53.1262136 29.8044577,52.3982003 34.2801748,52.2643618 C34.2038118,52.1151788 34.1333882,51.9830452 34.0884189,51.9174047 C34.0578737,51.8756334 33.8873298,51.6744494 33.5123029,51.3223775 C32.9760653,50.8091878 32.5382511,50.2380298 32.189527,49.6319204 C28.1685937,49.9115321 24.5252327,50.6685295 21.3392009,51.8986502 C19.7355791,47.5510301 18.8616476,42.6578262 18.7428608,37.3469098 L21.3510796,37.3469098 C20.8733869,36.4884679 20.6069651,35.5584182 20.5687836,34.6104665 L18.7428608,34.6104665 C18.8701323,29.3080748 19.7440638,24.4319204 21.3476857,20.1013498 C24.1883873,21.1916647 27.3854492,21.9145631 30.8905085,22.2572579 C31.9146204,21.9060384 32.9497626,21.5616386 34.028177,21.2615676 C34.5525359,21.1115321 35.1048946,20.8199858 35.6903438,20.3775515 C36.1620971,20.0195122 36.6610017,19.7390481 37.171785,19.4969453 L37.171785,3.61449207 C39.9717596,5.30239166 45.5377699,9.45394269 49.2371304,17.5439261 C48.8442854,17.6948141 48.4421073,17.8363249 48.0348382,17.9718683 L48.0891408,18.0068198 C48.2987146,18.0349515 48.6949535,18.0477386 48.9707085,18.0571158 L49.3016146,18.0647881 C50.6320268,18.1150841 51.9751662,18.1065593 53.2733363,18.0980346 C53.6381815,18.0920673 54.0242386,18.0920673 54.4069018,18.0920673 C57.2603305,16.3777409 59.0098905,14.5295761 59.9533971,13.3071276 C61.3355664,14.7921383 62.5692522,16.3888231 63.6468182,18.0741653 C64.0176027,18.0741653 64.3892357,18.0741653 64.7600203,18.0724603 C65.5431647,18.0724603 66.2906731,18.16879 67,18.3461047 C65.3734693,15.4630358 63.3456088,12.7811508 60.9291458,10.3831399 C60.810359,10.1870708 60.6406636,10.0251006 60.4370291,9.9057542 C53.7510289,3.52071987 45.0201988,0 35.7887672,0 C26.5827898,0 17.8349902,3.53776936 11.1405053,9.94837793 C10.9792946,10.0421501 10.8435383,10.1785461 10.7332362,10.3405162 C3.82663205,17.1603126 0.0169695435,26.2647407 0.00848477173,35.9062278 L0,36.0170495 C0,45.7352593 3.82663205,54.8567369 10.7671753,61.6935828 C10.8605078,61.8214539 10.9708099,61.9322756 11.1065662,62.0175231 C17.8095359,68.4537059 26.5827898,71.9914753 35.8227063,72 C39.8758817,71.9957376 43.8408156,71.3112006 47.5809029,70.0000947 C47.2211486,69.1723419 46.9699994,68.2840635 46.8274552,67.3395217 L46.8274552,67.3395217 Z" id="Fill-22" fill="#344154"></path>
            <path d="M97.9998361,66.3764678 C97.031668,67.8206924 97.3287196,68.9392668 98.317199,70.5429242 L97.9862953,71.0237671 C97.5546819,71.6538662 97.1222222,72.2848134 96.7083811,72.9013438 C95.9619437,72.5086979 95.1494949,72.4264373 94.3852852,72.6732191 C93.4323505,72.9836044 92.6435981,73.7960337 92.2763035,74.8467644 C91.8091454,76.1824389 91.0093911,77.3154301 90.1546273,78.5052405 C89.788179,77.9989562 89.3083264,77.6775463 88.755692,77.5706924 C88.1345071,77.4511177 87.4904722,77.618183 86.9056783,78.0617118 C85.5871416,79.0607115 85.2012284,80.5583631 85.8562653,82.0254849 L85.740322,82.1238584 C85.2596232,82.5317692 84.7933114,82.9269592 84.3490035,83.3467426 C83.8657657,83.8055362 83.7422057,83.7427807 83.4942396,83.6189658 C82.4287468,83.0897843 81.2405404,83.5036314 80.6015833,84.6239019 C80.3519245,85.0623424 79.9499316,85.3625511 79.4836199,85.7094025 C78.769342,84.9716013 78.0017471,84.5314647 77.1402128,84.3677916 C75.3519791,84.0268766 73.669533,84.8935809 72.7377558,86.6278377 C71.8829919,86.5014786 71.2965055,86.7541967 70.943598,87.0052188 C70.4789788,87.3342611 69.9271907,88.0016743 69.9288833,89.3144516 L69.9483482,94.7419544 C69.9483482,94.9929764 69.9491945,95.2295816 69.9161888,95.4356571 C69.9043406,95.5162216 69.8848756,95.5645603 69.8950313,95.5713447 C69.866257,95.5738888 69.7968604,95.5730408 69.6868412,95.541663 C69.1147419,95.3754458 68.5959594,95.2796164 68.0627899,95.2439984 C68.0695603,94.6325563 68.0788696,94.0219623 68.1118754,93.4105201 C68.1668849,92.3945595 67.9028391,91.4913891 67.2833468,90.5704097 C67.0878513,90.2803775 66.98291,89.8461773 66.8711983,89.3856876 C66.8238055,89.1889406 66.7755663,88.9938897 66.7214031,88.801383 C66.6672398,88.6165087 66.6274637,88.425698 66.5758393,88.1763721 C66.4920555,87.7760938 66.4057329,87.3622467 66.2297023,86.9467035 C65.5543542,85.3633991 64.3932294,84.2812908 62.7767948,83.729212 C62.7420965,83.1084413 62.7581762,82.4698617 62.7751022,81.9101505 C62.8165709,80.6720014 62.797106,79.3600722 62.0972152,78.10157 C62.0963689,78.0786727 62.0955226,78.0523832 62.0946763,78.0260938 C62.0895985,77.8904062 62.0845207,77.7038358 62.0235871,77.5036966 C61.9482663,77.2543707 61.8805622,77.0016526 61.8086266,76.7379099 C61.6114385,76.0068931 61.40748,75.252131 61.05288,74.5321388 C60.3868412,73.1837436 59.2764945,72.1762634 57.8411683,71.6182482 C57.3240784,71.4181091 56.8061423,71.1645429 56.3119026,70.8719666 C56.2839747,70.8499174 56.2272725,70.7676568 56.2078076,70.7049013 C55.8125851,69.4158694 55.1253888,68.3057754 54.1656837,67.4059972 C53.662981,66.9344829 53.4370186,66.5011307 53.4327871,66.0007828 C53.409937,63.3167131 52.0626261,61.2661346 49.3138409,59.731169 C48.6207205,59.3427633 48.2111109,58.7618509 47.9005185,57.7263851 C47.4909089,56.3627251 46.5701335,55.2076846 45.0840293,54.19342 L44.109937,53.5327912 C43.448976,53.0867183 42.7863225,52.6389493 42.1329782,52.1793076 C41.7199834,51.8884274 41.4500134,51.4991737 41.3332239,51.0225711 C41.2909089,50.8529616 41.2384382,50.6714795 41.1326506,50.4883013 C40.9117661,50.10668 40.7111928,49.7106419 40.5114658,49.3154519 C39.9292108,48.1671958 39.3266446,46.9799295 38.2408406,46.0445334 C37.9793336,45.8198008 37.909937,45.6171175 37.9641002,45.2405845 C38.1172807,44.1898539 37.7804529,43.3163651 37.3936934,42.5285292 C37.302293,42.3445029 37.2032758,42.1630208 37.102566,41.9815387 C36.8334423,41.4947595 36.6015558,41.074128 36.579552,40.5983735 C36.5177721,39.2550665 35.3879604,38.1415804 33.8942394,37.9507698 C33.5447172,37.9066713 33.1105648,37.8515482 32.6730273,37.9329608 C32.3658201,37.990628 32.115315,37.9388971 31.735326,37.506393 C30.8306304,36.4751674 29.7566746,35.5838697 28.4516787,34.7816169 C28.1266991,34.5823258 27.825416,34.2566757 27.5029754,33.9081282 C27.7035487,33.6028312 27.8939664,33.2890537 28.0843841,32.9752762 C28.677641,31.9949335 29.2378922,31.0705619 30.1282007,30.4659041 C30.3355444,30.3242802 30.6148236,30.0834348 30.7637726,29.7408237 C30.9372643,29.3422415 31.3180996,29.2031617 31.9782143,28.9919979 C32.4055962,28.8554623 32.8312856,28.7112943 33.2569749,28.5679743 L33.3373735,28.5408367 C34.115124,28.2779421 34.9191098,28.0057189 35.7137863,27.7826824 C36.9840838,27.4265026 38.1917551,26.8082761 39.4045043,25.893233 C39.6871687,25.6795251 39.9647554,25.606593 40.3667483,25.6430591 C41.3992354,25.7346482 42.3073162,25.4378316 43.0131311,24.781443 C43.0359812,24.7839871 43.0613702,24.7873793 43.0918371,24.7907715 C43.6207751,24.852679 44.3045862,24.889145 44.9037672,24.6287945 C45.1144961,24.5372054 45.271908,24.5244846 45.6392026,24.5685831 L46.2180724,24.6415152 C47.4689051,24.8009481 48.7612064,24.9654693 50.0602783,24.9849743 C52.0998633,25.0163521 54.1656837,24.9909107 56.1654926,24.9663173 L56.3762215,24.9637732 C57.2182908,24.9544446 58.0612065,24.9442681 58.9032758,24.9383317 C59.6505595,24.9332435 60.3969968,24.9315474 61.1442805,24.9290032 C62.1429155,24.9273071 63.1423968,24.9239149 64.1401855,24.9145864 C64.8273818,24.925611 65.2708434,25.1206619 65.5221948,25.6167696 C65.5738191,25.7185353 65.6347528,25.8007959 65.7159977,25.9034096 C66.7417143,27.3484822 67.6108653,27.7097504 69.0343433,27.2255154 L69.1020474,27.3298252 C69.5133496,27.9675568 69.928037,28.6103766 70.3232595,29.261677 C70.3249521,29.2930547 70.3249521,29.3278246 70.3257984,29.3617465 C70.3266447,29.4507915 70.3291836,29.5389884 70.335954,29.6144646 L70.3232595,29.7577846 C70.1184547,32.399452 70.8716624,33.3119509 73.4232595,33.5146343 C75.1801801,33.653714 76.960797,33.6596503 78.6897897,33.6655867 L79.5377831,33.6689789 C80.8800163,33.6766113 82.2214031,33.6740671 83.5610974,33.671523 L84.0849576,33.670675 C86.3344252,33.6689789 88.6634452,33.6664347 90.944226,33.7198617 C91.1820365,33.72495 91.6678132,33.9200009 92.2542997,34.4508785 C94.0518427,36.0782813 95.6496587,37.991476 97.2076986,39.8571801 L97.8796614,40.6602809 C98.4695331,41.3616161 99.1144144,41.9984996 99.7381381,42.6133339 C100.1816,43.0517744 100.625908,43.4885187 101.045673,43.9473123 C101.649085,44.604549 102.230494,45.2821388 102.827136,45.9775376 L102.90415,46.0682787 C103.345072,46.5804993 103.785149,47.0927198 104.236227,47.5956119 C104.724543,48.1434505 105.228092,48.6760242 105.732487,49.2094459 L105.801037,49.2832261 C106.160715,49.6639993 106.519547,50.0447725 106.872454,50.4306341 C107.718755,51.3575498 108.559132,52.2887057 109.417281,53.2402148 L110.006306,53.8923632 C105.315261,56.5323345 102.745045,60.8158215 100.69869,65.108637 C99.4834015,64.9882143 98.6701064,65.3783161 97.9998361,66.3764678 L97.9998361,66.3764678 Z M113.785886,53.4072802 L113.785886,53.4072802 C113.342424,52.8942115 112.903194,52.3769027 112.465657,51.8595938 C111.482255,50.698617 110.465001,49.4986301 109.363964,48.3308689 C107.664592,46.5279203 105.907671,44.6639123 104.3911,42.6710011 L104.333552,42.596373 C104.083047,42.2656345 103.824079,41.9247195 103.505869,41.6092459 C103.152962,41.2606984 102.78736,40.9231756 102.381982,40.5508828 C101.727791,39.9487692 101.050751,39.3263025 100.489653,38.6631295 L99.6323505,37.6446247 C98.0099918,35.7127729 96.3334698,33.7156215 94.4081353,31.9652518 C93.5923013,31.2223624 92.6072071,30.4294381 91.2455091,30.4209576 C89.1542997,30.4073889 87.062244,30.4082369 84.9710346,30.4073889 C83.197188,30.4158694 81.4309581,30.4082369 79.6604967,30.3997565 L78.5983892,30.3972123 C77.0657383,30.3963643 75.4814632,30.3955162 73.9462734,30.2742455 L73.6229865,30.2496521 C73.6094457,30.248804 73.5959049,30.247956 73.5815177,30.2462599 C73.5806714,30.1249891 73.5781325,29.9757328 73.5696695,29.7781378 C73.5417416,29.0996999 73.5104285,28.3313691 73.1862953,27.6436027 C72.7716078,26.7667218 72.20374,25.9933026 71.6494129,25.2393885 L71.5800162,25.1444072 C70.5991536,23.8078847 69.6995358,23.4584892 68.347147,23.938484 C68.3361451,23.9198269 68.3242969,23.9020179 68.313295,23.8833609 C67.4119846,22.4009742 66.062981,21.6496042 64.2840566,21.6496042 C61.6503684,21.6589328 59.0183727,21.6606289 56.3863771,21.664021 L54.4678131,21.6657171 C53.930412,21.6657171 53.393011,21.6708054 52.85561,21.6750457 C51.595468,21.6869183 50.1677585,21.699639 48.7705158,21.644516 L48.4023749,21.6317953 C47.4511327,21.6012655 46.5515149,21.5715839 45.8093091,21.1221188 L45.6070432,21 L44.5610153,21 L44.0887795,21.3214099 C43.9669121,21.4062147 43.8458911,21.4927155 43.7553369,21.5478386 C42.6712255,21.1026137 41.9459457,21.2552622 41.1216487,22.0846525 C40.8330601,22.3755327 40.6968057,22.3831652 40.5715531,22.3636601 C39.5043678,22.2110116 38.4938845,22.4832348 37.569724,23.1769375 C36.588015,23.9138906 35.6283099,24.4083022 34.6364453,24.6864617 C33.2265081,25.0824998 31.8555007,25.5557102 30.458258,26.0458815 C29.6974335,26.3130164 28.55662,26.7141428 28.053071,27.9395712 L28.0463006,27.935331 C26.6710617,28.9258502 25.8619981,30.2810298 25.0783235,31.5938071 C24.8650557,31.951683 24.6517879,32.309559 24.4258255,32.6589545 C23.7961777,33.6342089 23.8681133,34.7400626 24.6196284,35.6203357 C25.1917278,36.288597 25.7832921,36.9806036 26.5711982,37.4589023 C27.7704065,38.188223 28.7791971,39.1261633 29.9267811,40.3100374 C30.4904174,40.8917979 31.1903082,41.1894625 32.0078348,41.1953988 C32.2033303,41.1945508 32.3929017,41.1937027 32.6315586,41.1886144 C32.8575209,41.1843742 33.0826369,41.180982 33.3111381,41.1869183 C33.3339883,41.1877664 33.3551458,41.1877664 33.3746107,41.1886144 C33.3796885,41.2182961 33.3856126,41.2581543 33.3915367,41.3081891 C33.4592408,41.8585718 33.5988804,42.3521353 33.8070704,42.777007 C33.904395,42.9746021 34.0076437,43.1688049 34.1117388,43.3630077 C34.4993445,44.084696 34.8344797,44.7088588 34.7202291,45.4364834 C34.5636634,46.432091 34.9055689,47.3598547 35.7087085,48.1214012 C36.076003,48.4691006 36.4940756,48.8854919 36.81567,49.3417413 C37.0458638,49.6673915 37.2371278,50.0473167 37.4444715,50.4586196 L37.8168439,51.1743716 C37.9683317,51.4525311 38.1113566,51.7154258 38.185831,51.9596634 C38.5455089,53.153714 39.2284737,54.1238801 40.2169531,54.8413282 C40.8796066,55.323019 41.5600325,55.7801166 42.2404584,56.2372141 C42.5730546,56.4610985 42.9056509,56.684135 43.2374008,56.9114117 C44.1937208,57.5661042 44.6930383,58.225037 44.855528,59.0459468 C44.8995357,59.2783117 44.9883973,59.4665782 45.063718,59.624315 C45.0840293,59.6675655 45.1043405,59.7116639 45.1221128,59.7540663 C45.7703792,61.3924937 47.1286921,62.2600461 48.3270541,63.0258328 L48.5555553,63.171697 C49.5491125,63.8111246 50.014578,64.5099156 50.0636635,65.4376794 C50.1652196,67.3559624 50.8363361,68.8612464 52.1150967,70.0408802 C52.464619,70.3631382 52.7802892,70.9228494 53.027409,71.6598026 C53.3151513,72.5205706 53.8229318,73.1803514 54.5795248,73.6773071 C55.0500681,73.9868444 55.5637727,74.2098808 56.0173899,74.4074759 C56.2111928,74.4914325 56.4041494,74.5762373 56.5937208,74.6652822 C57.5381926,75.1155954 58.1001363,75.5599722 58.1763034,76.5013047 C58.2016924,76.829499 58.239776,77.3264547 58.585913,77.6911151 C58.7797159,77.8954945 58.8144142,78.1566931 58.864346,78.6417761 L58.8787331,78.782552 C58.9024295,78.9911716 58.9549002,79.3007089 59.142779,79.5831086 C59.5633905,80.2089676 59.5380015,80.9611855 59.5075346,81.8346743 L59.4990716,82.0772158 C59.4711437,83.0193964 59.4906086,83.7885753 59.5608516,84.4975428 C59.6818726,85.7322997 60.4105376,86.5481212 61.668987,86.8576585 C62.4949766,87.0620379 63.0476111,87.6047882 63.3116569,88.4740367 C63.3861314,88.7182743 63.4276002,88.9760807 63.4783782,89.2830738 L63.5655472,89.7910542 C63.728037,90.7035531 63.9116842,91.7364747 64.6581216,92.5921545 C64.8121484,92.7685483 64.8595412,92.9093242 64.8493856,93.1484735 L64.83923,93.3477646 C64.8045316,94.0694529 64.7706796,94.7928373 64.7740648,95.5153736 C64.7791426,96.4439854 65.2192191,97.387014 65.9233414,97.9772549 C66.4937481,98.4555536 67.1690962,98.6556928 67.8249794,98.5420544 C68.268441,98.4640341 68.6416597,98.6268592 69.1697514,98.8617683 L69.3178541,98.9262199 L70.4764399,99 L70.639776,98.9330043 C72.4686321,98.1765461 73.3470924,96.6585414 73.2523067,94.4196964 C73.2091454,93.3935592 73.2125306,92.3411325 73.2159158,91.3243237 C73.2167621,91.0834783 73.2176084,90.8434809 73.2176084,90.6017874 C73.5899808,90.630621 73.9276548,90.5729538 74.2331694,90.4262416 C74.8348893,90.1379055 75.2436526,89.5400322 75.4493037,88.6521266 C75.6278732,87.8761633 75.99009,87.6794164 76.2465191,87.5988519 C76.4496313,87.5377925 76.6620528,87.5276159 77.2129947,88.0644299 L77.3001637,88.1517787 C77.5108926,88.3637906 77.7986349,88.6546708 78.2116297,88.7759415 L78.3775047,88.8268244 C78.8852852,88.981169 79.5191645,89.1745238 80.1301937,88.9735366 C81.4402674,88.5427285 82.3805077,87.8753153 83.0101555,86.9136296 C84.0307943,87.2036618 85.0455091,86.9848656 85.9569751,86.2691137 C86.2066338,86.0740628 86.4562926,85.8493303 86.7685776,85.5423371 C87.2560469,85.0597982 87.6411138,84.7070105 88.1598962,84.5569061 C88.6693693,84.410194 89.0865956,84.0667348 89.3328692,83.5909803 C89.5435981,83.1881578 89.6121484,82.7200357 89.5342888,82.2680264 C89.6527709,82.2968601 89.7737919,82.3155171 89.8948129,82.3248456 C90.5879333,82.3731843 91.2827463,82.1035053 91.8937755,81.5344655 C92.1400491,81.3054927 92.350778,81.0680395 92.5174992,80.8331304 L92.8949494,80.3107332 C93.8411138,79.0047404 94.8194376,77.653801 95.3196014,75.9950204 C95.3306033,75.9712751 95.3475293,75.9449856 95.372072,75.9119118 C96.9986622,76.8278029 98.2029484,76.5301383 99.2718263,74.9561625 C99.7652197,74.230234 100.262845,73.5085457 100.76047,72.7860094 L101.333415,71.954075 C102.068851,70.8872315 102.042615,70.0323998 101.243707,68.9994781 C101.175157,68.9112812 101.101529,68.8239323 101.024515,68.7340393 C100.976276,68.6772201 100.914496,68.6068322 100.864565,68.5440767 C101.936828,68.7382796 102.761971,68.3015352 103.32053,67.2355397 L103.923096,66.0694746 C104.548512,64.8533748 105.195932,63.5965687 105.906825,62.4228712 C107.590117,59.642124 109.648321,57.6907672 112.198225,56.4602505 C112.775403,56.1812429 113.492219,55.7504349 113.9086,54.8845786 L114,53.655758 L113.785886,53.4072802 Z" id="Fill-11" fill="#344154"></path>
        </g>
    </g>
</svg>